<svg width="50.112px" height="50.112px" viewBox="-3.84 0 50.112 50.112" xmlns="http://www.w3.org/2000/svg">
  <g id="Group_1640" data-name="Group 1640" transform="translate(3289.749 -2050.811)">
    <path id="Path_3463" data-name="Path 3463" d="M-3263.594,2063.28l-.775-9.926,6.724-1.56a.913.913,0,0,1,.89,1.454c-1.3,1.761-1.864,5.88-.3,9.432l-6.536.6" fill="#fff" fill-rule="evenodd"/>
    <path id="Path_3464" data-name="Path 3464" d="M-3260.522,2066.352l-.775-9.928,6.724-1.558a.912.912,0,0,1,.89,1.454c-1.295,1.762-1.864,5.879-.3,9.431l-6.536.6" fill="#5db67d" fill-rule="evenodd"/>
    <path id="Path_3465" data-name="Path 3465" d="M-3263.348,2054.1l.635,8.134,4.316-.4c-1.085-3.477-.519-7.179.8-9.07Zm-.246,10.139a.954.954,0,0,1-.618-.226.952.952,0,0,1-.338-.659l-.776-9.927a.96.96,0,0,1,.74-1.01l6.725-1.559a1.81,1.81,0,0,1,1.935.783,1.888,1.888,0,0,1-.056,2.175c-1.029,1.4-1.669,5.124-.2,8.476a.964.964,0,0,1-.052.874.962.962,0,0,1-.74.468l-6.535.6a.879.879,0,0,1-.088,0" fill="#6f0911" fill-rule="evenodd"/>
    <path id="Path_3466" data-name="Path 3466" d="M-3260.469,2082.662c7.028-6.449,4.68-17.882,2.085-19.627h-5.229c-1.987,8.82-8.471,16.4-23.633,13.812a1.268,1.268,0,0,0-1.52,1.469c1.208,6.421,15.627,15.97,28.3,4.346" fill="#fff" fill-rule="evenodd"/>
    <path id="Path_3467" data-name="Path 3467" d="M-3257.4,2085.734c7.028-6.449,4.68-17.882,2.085-19.627h-5.23c-1.986,8.82-8.47,16.4-23.632,13.812a1.268,1.268,0,0,0-1.52,1.469c1.208,6.421,15.627,15.971,28.3,4.346" fill="#f0d540" fill-rule="evenodd"/>
    <path id="Path_3468" data-name="Path 3468" d="M-3260.469,2082.662h0Zm-27.021-4.876a.371.371,0,0,0-.269.1.259.259,0,0,0-.063.249c.5,2.66,3.856,6.425,9.091,8.168,3.527,1.173,10.5,2.171,17.613-4.351,4.388-4.028,4.462-9.764,4.29-12.045-.233-3.1-1.19-5.207-1.9-5.915h-4.133c-1.521,5.931-5.925,14.331-18.641,14.333a35.1,35.1,0,0,1-5.909-.535A.484.484,0,0,0-3287.49,2077.786Zm14.062,11.305a18.815,18.815,0,0,1-5.91-.963c-5.291-1.761-9.652-5.813-10.371-9.635a2.172,2.172,0,0,1,.58-1.95,2.329,2.329,0,0,1,2.044-.643c15.595,2.665,20.861-5.641,22.535-13.077a.96.96,0,0,1,.936-.748h5.23a.965.965,0,0,1,.535.163c1.493,1,2.672,4.029,2.936,7.528.193,2.559.1,9.007-4.908,13.6h0c-4.864,4.463-9.7,5.721-13.607,5.721" fill="#6f0911" fill-rule="evenodd"/>
    <path id="Path_3469" data-name="Path 3469" d="M-3251.446,2081.691c3.1-11.533-1.08-21.484-6.522-20.668l-3.542,2.112c.7,3.865,1.041,22.672-21.777,30.122a1.189,1.189,0,0,0-.71,1.733c3.28,5.589,27.928,3.9,32.551-13.3" fill="#fff" fill-rule="evenodd"/>
    <path id="Path_3470" data-name="Path 3470" d="M-3248.374,2084.763c3.1-11.532-1.08-21.484-6.522-20.668l-3.542,2.112c.7,3.865,1.041,22.672-21.777,30.122a1.189,1.189,0,0,0-.71,1.733c3.28,5.59,27.928,3.9,32.551-13.3" fill="#f0d540" fill-rule="evenodd"/>
    <path id="Path_3471" data-name="Path 3471" d="M-3260.462,2063.628c.9,6.783-1.491,23.673-22.528,30.542a.31.31,0,0,0-.2.173.174.174,0,0,0,.018.16c.964,1.643,5.223,2.953,11.215,2.144,7.772-1.047,17-5.592,19.581-15.206h0c2.229-8.294.519-15.125-2.012-17.963a3.967,3.967,0,0,0-3.265-1.527Zm-15.031,35.186c-4.534,0-8.087-1.217-9.332-3.338a2.1,2.1,0,0,1-.158-1.813,2.212,2.212,0,0,1,1.4-1.318c24.256-7.919,21.168-28.829,21.131-29.038a.958.958,0,0,1,.452-1l3.542-2.112a.95.95,0,0,1,.349-.124,5.733,5.733,0,0,1,5.158,2.125c2.962,3.319,4.861,10.709,2.434,19.741h0c-2.828,10.523-12.795,15.481-21.179,16.611a28.591,28.591,0,0,1-3.795.264" fill="#6f0911" fill-rule="evenodd"/>
    <path id="Path_3472" data-name="Path 3472" d="M-3255.874,2079.325c-.033,0-.067,0-.1,0a.96.96,0,0,1-.857-1.054,9.756,9.756,0,0,0,.052-1.15.962.962,0,0,1,.949-.973.954.954,0,0,1,.971.948,11.464,11.464,0,0,1-.063,1.372.96.96,0,0,1-.953.862" fill="#6f0911" fill-rule="evenodd"/>
    <path id="Path_3473" data-name="Path 3473" d="M-3267.492,2093.451a.959.959,0,0,1-.883-.583.96.96,0,0,1,.5-1.261,18.917,18.917,0,0,0,10.059-9.675.959.959,0,0,1,1.259-.508.96.96,0,0,1,.508,1.259,20.858,20.858,0,0,1-11.07,10.69.968.968,0,0,1-.377.078" fill="#6f0911" fill-rule="evenodd"/>
  </g>
</svg>
