<svg width="50.114px" height="50.114px" viewBox="-3.84 0 50.114 50.114" xmlns="http://www.w3.org/2000/svg">
  <g id="Group_1637" data-name="Group 1637" transform="translate(3151.083 -2328.141)">
    <path id="Path_3674" data-name="Path 3674" d="M-3125.506,2329.7c5.563,2.143,7.744,9.925,7.744,9.925s-6.838,4.306-12.4,2.162-7.744-9.924-7.744-9.924,6.838-4.307,12.4-2.163" fill="#fff" fill-rule="evenodd"/>
    <path id="Path_3675" data-name="Path 3675" d="M-3122.434,2332.774c5.563,2.143,7.743,9.925,7.743,9.925s-6.838,4.306-12.4,2.162-7.743-9.924-7.743-9.924,6.838-4.307,12.4-2.163" fill="#5db67d" fill-rule="evenodd"/>
    <path id="Path_3676" data-name="Path 3676" d="M-3136.751,2332.309c.671,1.885,2.829,7,6.932,8.585s9.141-.763,10.9-1.712c-.671-1.885-2.829-7-6.933-8.585S-3134.991,2331.36-3136.751,2332.309Zm10.011,11.04a10.46,10.46,0,0,1-3.769-.664c-5.943-2.29-8.229-10.225-8.323-10.562a.962.962,0,0,1,.413-1.071c.3-.187,7.316-4.538,13.257-2.246s8.23,10.225,8.325,10.561a.963.963,0,0,1-.414,1.072,20.175,20.175,0,0,1-9.489,2.91" fill="#6f0911" fill-rule="evenodd"/>
    <path id="Path_3677" data-name="Path 3677" d="M-3111.723,2364.432a10.752,10.752,0,0,1-10.752,10.752,10.752,10.752,0,0,1-10.752-10.752,10.752,10.752,0,0,1,10.752-10.752,10.752,10.752,0,0,1,10.752,10.752" fill="#fff" fill-rule="evenodd"/>
    <path id="Path_3678" data-name="Path 3678" d="M-3108.651,2367.5a10.752,10.752,0,0,1-10.752,10.752,10.752,10.752,0,0,1-10.752-10.752,10.752,10.752,0,0,1,10.752-10.752,10.752,10.752,0,0,1,10.752,10.752" fill="#ea176f" fill-rule="evenodd"/>
    <path id="Path_3679" data-name="Path 3679" d="M-3122.475,2354.639a9.8,9.8,0,0,0-9.792,9.793,9.8,9.8,0,0,0,9.792,9.792,9.8,9.8,0,0,0,9.792-9.792A9.8,9.8,0,0,0-3122.475,2354.639Zm0,21.5a11.725,11.725,0,0,1-11.712-11.711,11.725,11.725,0,0,1,11.712-11.713,11.725,11.725,0,0,1,11.712,11.713,11.724,11.724,0,0,1-11.712,11.711" fill="#6f0911" fill-rule="evenodd"/>
    <path id="Path_3680" data-name="Path 3680" d="M-3124.011,2354.639a.933.933,0,0,1-.346-.064.96.96,0,0,1-.549-1.242c2.056-5.314-1.645-13.083-8.61-18.071a.962.962,0,0,1-.222-1.34.961.961,0,0,1,1.34-.222c7.653,5.483,11.644,14.221,9.283,20.326a.961.961,0,0,1-.9.613" fill="#6f0911" fill-rule="evenodd"/>
    <path id="Path_3681" data-name="Path 3681" d="M-3142.563,2338.053a.956.956,0,0,1-.833-.482,22.09,22.09,0,0,0-7.2-7.633.958.958,0,0,1-.454-1.079.958.958,0,0,1,.927-.716,30.712,30.712,0,0,1,13.065,2.837.961.961,0,0,1,.465,1.276.959.959,0,0,1-1.276.465,28.325,28.325,0,0,0-9.127-2.5,25.05,25.05,0,0,1,5.264,6.393.961.961,0,0,1-.353,1.311.959.959,0,0,1-.478.128" fill="#6f0911" fill-rule="evenodd"/>
    <path id="Path_3682" data-name="Path 3682" d="M-3139.371,2350.387a.96.96,0,0,1-.96-.96,24.347,24.347,0,0,0-1.295-7.967.962.962,0,0,1,.595-1.221.961.961,0,0,1,1.221.594,26.283,26.283,0,0,1,1.4,8.594.96.96,0,0,1-.96.96" fill="#6f0911" fill-rule="evenodd"/>
    <path id="Path_3683" data-name="Path 3683" d="M-3122.475,2370a.961.961,0,0,1-.96-.961.96.96,0,0,1,.96-.96,3.651,3.651,0,0,0,3.648-3.647.96.96,0,0,1,.96-.961.96.96,0,0,1,.96.961,5.574,5.574,0,0,1-5.568,5.568" fill="#6f0911" fill-rule="evenodd"/>
    <path id="Path_3684" data-name="Path 3684" d="M-3128.619,2360.179a10.752,10.752,0,0,1-10.752,10.752,10.752,10.752,0,0,1-10.752-10.752,10.752,10.752,0,0,1,10.752-10.752,10.752,10.752,0,0,1,10.752,10.752" fill="#fff" fill-rule="evenodd"/>
    <path id="Path_3685" data-name="Path 3685" d="M-3125.547,2363.251A10.752,10.752,0,0,1-3136.3,2374a10.752,10.752,0,0,1-10.752-10.752A10.752,10.752,0,0,1-3136.3,2352.5a10.752,10.752,0,0,1,10.752,10.752" fill="#ea176f" fill-rule="evenodd"/>
    <path id="Path_3686" data-name="Path 3686" d="M-3139.371,2350.387a9.8,9.8,0,0,0-9.792,9.792,9.8,9.8,0,0,0,9.792,9.792,9.8,9.8,0,0,0,9.792-9.792A9.8,9.8,0,0,0-3139.371,2350.387Zm0,21.5a11.725,11.725,0,0,1-11.712-11.712,11.726,11.726,0,0,1,11.712-11.712,11.725,11.725,0,0,1,11.712,11.712,11.724,11.724,0,0,1-11.712,11.712" fill="#6f0911" fill-rule="evenodd"/>
    <path id="Path_3687" data-name="Path 3687" d="M-3139.371,2365.747a.96.96,0,0,1-.96-.96.961.961,0,0,1,.96-.96,3.652,3.652,0,0,0,3.648-3.648.96.96,0,0,1,.96-.96.96.96,0,0,1,.96.96,5.573,5.573,0,0,1-5.568,5.568" fill="#6f0911" fill-rule="evenodd"/>
  </g>
</svg>
